<?xml version="1.0" encoding="UTF-8" standalone="no"?>
<!DOCTYPE svg PUBLIC "-//W3C//DTD SVG 1.1//EN" "http://www.w3.org/Graphics/SVG/1.1/DTD/svg11.dtd">
<svg width="100%" height="100%" viewBox="0 0 24 24" version="1.1" xmlns="http://www.w3.org/2000/svg" xmlns:xlink="http://www.w3.org/1999/xlink" xml:space="preserve" style="fill-rule:evenodd;clip-rule:evenodd;">
    <path d="M4,6C9.333,0.667 14.667,0.667 20,6" style="fill:none;stroke:rgb(187,187,187);stroke-width:1px;"/>
    <g transform="matrix(0.99243,0.122812,-0.122812,0.99243,0.880701,-2.288)">
        <path d="M17,6L21,4L21,8L17,6Z" style="fill:rgb(187,187,187);fill-rule:nonzero;"/>
    </g>
    <path d="M4,18C9.333,23.333 14.667,23.333 20,18" style="fill:none;stroke:rgb(187,187,187);stroke-width:1px;"/>
    <g transform="matrix(0.992168,0.124908,-0.124908,0.992168,2.2875,-0.48357)">
        <path d="M7,18L3,20L3,16L7,18Z" style="fill:rgb(187,187,187);fill-rule:nonzero;"/>
    </g>
    <path d="M8,8L2,12L8,16" style="fill:none;stroke:black;stroke-width:1.5px;"/>
    <path d="M8,8L2,12L8,16" style="fill:none;stroke:rgb(187,187,187);stroke-width:1.5px;"/>
    <path d="M16,8L22,12L16,16" style="fill:none;stroke:rgb(187,187,187);stroke-width:1.5px;"/>
    <path d="M14,6L10,18" style="fill:none;stroke:rgb(187,187,187);stroke-width:1.5px;"/>
</svg>
