<?xml version="1.0" encoding="UTF-8" standalone="no"?>
<!DOCTYPE svg PUBLIC "-//W3C//DTD SVG 1.1//EN" "http://www.w3.org/Graphics/SVG/1.1/DTD/svg11.dtd">
<svg width="100%" height="100%" viewBox="0 0 24 24" version="1.1" xmlns="http://www.w3.org/2000/svg" xmlns:xlink="http://www.w3.org/1999/xlink" xml:space="preserve" style="fill-rule:evenodd;clip-rule:evenodd;">
    <path d="M4,6C9.333,0.667 14.667,0.667 20,6" style="fill:none;stroke:rgb(118,177,245);stroke-width:1px;"/>
    <g transform="matrix(0.99243,0.122812,-0.122812,0.99243,0.880701,-2.288)">
        <path d="M17,6L21,4L21,8L17,6Z" style="fill:rgb(118,177,245);fill-rule:nonzero;"/>
    </g>
    <path d="M4,18C9.333,23.333 14.667,23.333 20,18" style="fill:none;stroke:rgb(118,177,245);stroke-width:1px;"/>
    <g transform="matrix(0.992168,0.124908,-0.124908,0.992168,2.2875,-0.48357)">
        <path d="M7,18L3,20L3,16L7,18Z" style="fill:rgb(118,177,245);fill-rule:nonzero;"/>
    </g>
    <path d="M8,8L2,12L8,16" style="fill:none;stroke:black;stroke-width:1.5px;"/>
    <path d="M8,8L2,12L8,16" style="fill:none;stroke:rgb(118,177,245);stroke-width:1.5px;"/>
    <path d="M16,8L22,12L16,16" style="fill:none;stroke:rgb(118,177,245);stroke-width:1.5px;"/>
    <g id="Layer1" transform="matrix(0.0452547,0,0,0.0452547,5.21179,5.21179)">
        <path d="M149.996,0C67.157,0 0.001,67.161 0.001,149.997C0.001,232.833 67.157,300 149.996,300C232.835,300 299.999,232.837 299.999,149.997C299.999,67.157 232.835,0 149.996,0ZM149.303,204.044L149.301,204.044L149.301,204.043C149.301,207.461 147.351,210.579 144.28,212.073C143.04,212.675 141.702,212.976 140.371,212.976C138.41,212.976 136.468,212.328 134.865,211.075L105.576,188.13C104.222,188.465 102.809,188.667 101.341,188.667L71.991,188.667C62.364,188.667 54.56,180.86 54.56,171.238L54.56,120.401C54.56,110.776 62.364,102.97 71.991,102.97L101.343,102.97C103.05,102.97 104.691,103.227 106.255,103.681L134.867,81.257C137.551,79.151 141.211,78.765 144.282,80.258C147.353,81.752 149.303,84.867 149.303,88.285L149.303,204.044ZM178.616,167.361L168.828,157.573C171.084,154.489 172.436,150.703 172.436,146.594C172.436,142.058 170.805,137.895 168.105,134.658L177.818,124.945C182.995,130.69 186.18,138.268 186.18,146.594C186.177,154.492 183.331,161.733 178.616,167.361ZM191.307,180.054C199.251,171.153 204.088,159.43 204.088,146.594C204.088,133.33 198.922,121.26 190.503,112.26L200.219,102.544C211.122,114.039 217.832,129.541 217.832,146.593C217.832,163.218 211.462,178.385 201.039,189.781L191.307,180.054ZM224.385,212.84L214.672,203.124C228.465,188.278 236.922,168.409 236.922,146.592C236.922,124.349 228.125,104.138 213.849,89.199L223.565,79.486C240.327,96.915 250.663,120.561 250.663,146.592C250.664,172.201 240.663,195.502 224.385,212.84Z" style="fill:rgb(145,220,90);fill-rule:nonzero;"/>
    </g>
</svg>
