<?xml version="1.0" encoding="UTF-8" standalone="no"?>
<!DOCTYPE svg PUBLIC "-//W3C//DTD SVG 1.1//EN" "http://www.w3.org/Graphics/SVG/1.1/DTD/svg11.dtd">
<svg width="100%" height="100%" viewBox="0 0 86 86" version="1.1" xmlns="http://www.w3.org/2000/svg" xmlns:xlink="http://www.w3.org/1999/xlink" xml:space="preserve" style="fill-rule:evenodd;clip-rule:evenodd;stroke-linejoin:round;stroke-miterlimit:1.41421;">
    <g>
        <path d="M61.696,14.999L57.57,19.456C66.376,25.23 71.493,35.809 69.754,46.866C68.608,54.154 64.691,60.56 58.727,64.903C53.521,68.694 47.297,70.518 40.95,70.155L42.04,69.011C42.019,69.01 41.996,69.013 41.975,69.012L46.104,64.68L42.291,61.041L34.103,69.637L34.101,69.634L30.568,73.344L34.379,76.98L34.381,76.979L42.974,85.168L46.51,81.458L40.945,76.156C48.561,76.516 56.011,74.303 62.26,69.753C69.521,64.467 74.288,56.669 75.684,47.797C77.741,34.694 71.897,22.14 61.696,14.999Z" style="fill:rgb(118,177,245);fill-rule:nonzero;"/>
        <path d="M15.415,38.302C16.561,31.014 20.478,24.608 26.442,20.265C31.648,16.474 37.872,14.65 44.219,15.013L43.129,16.157C43.15,16.158 43.173,16.155 43.194,16.156L39.065,20.488L42.878,24.127L51.066,15.531L51.068,15.534L54.601,11.824L50.79,8.188L50.788,8.189L42.195,0L38.659,3.71L44.224,9.012C36.608,8.652 29.158,10.865 22.909,15.415C15.648,20.701 10.881,28.499 9.485,37.371C7.425,50.475 13.27,63.029 23.47,70.17L27.596,65.713C18.793,59.937 13.676,49.359 15.415,38.302Z" style="fill:rgb(118,177,245);fill-rule:nonzero;"/>
    </g>
    <g transform="matrix(0.106667,0,0,0.106667,42.584,42.584)">
        <g id="Layer1">
            <g transform="matrix(1,0,0,1,-150,-150)">
                <path d="M149.996,0C67.157,0 0.001,67.161 0.001,149.997C0.001,232.833 67.157,300 149.996,300C232.835,300 299.999,232.837 299.999,149.997C299.999,67.157 232.835,0 149.996,0ZM149.303,204.044L149.301,204.044L149.301,204.043C149.301,207.461 147.351,210.579 144.28,212.073C143.04,212.675 141.702,212.976 140.371,212.976C138.41,212.976 136.468,212.328 134.865,211.075L105.576,188.13C104.222,188.465 102.809,188.667 101.341,188.667L71.991,188.667C62.364,188.667 54.56,180.86 54.56,171.238L54.56,120.401C54.56,110.776 62.364,102.97 71.991,102.97L101.343,102.97C103.05,102.97 104.691,103.227 106.255,103.681L134.867,81.257C137.551,79.151 141.211,78.765 144.282,80.258C147.353,81.752 149.303,84.867 149.303,88.285L149.303,204.044ZM178.616,167.361L168.828,157.573C171.084,154.489 172.436,150.703 172.436,146.594C172.436,142.058 170.805,137.895 168.105,134.658L177.818,124.945C182.995,130.69 186.18,138.268 186.18,146.594C186.177,154.492 183.331,161.733 178.616,167.361ZM191.307,180.054C199.251,171.153 204.088,159.43 204.088,146.594C204.088,133.33 198.922,121.26 190.503,112.26L200.219,102.544C211.122,114.039 217.832,129.541 217.832,146.593C217.832,163.218 211.462,178.385 201.039,189.781L191.307,180.054ZM224.385,212.84L214.672,203.124C228.465,188.278 236.922,168.409 236.922,146.592C236.922,124.349 228.125,104.138 213.849,89.199L223.565,79.486C240.327,96.915 250.663,120.561 250.663,146.592C250.664,172.201 240.663,195.502 224.385,212.84Z" style="fill:rgb(145,220,90);fill-rule:nonzero;"/>
            </g>
        </g>
    </g>
</svg>
